<svg id="Layer_1" data-name="Layer 1" xmlns="http://www.w3.org/2000/svg" viewBox="0 0 570.7 260.15"><defs><style>.cls-1{fill:navy;}</style></defs><path class="cls-1" d="M139.33,266.82v-3H127.46v18.45h3.18v-7.6h7.59v-3h-7.59v-4.87Z" transform="translate(-28.39 -46.35)"/><path class="cls-1" d="M160.1,263.82v18.45h3.18V263.82Z" transform="translate(-28.39 -46.35)"/><path class="cls-1" d="M197.63,263.82v13.05l-9.22-13.05h-3.23v18.45h3.18v-13l9.22,13h3.23V263.82Z" transform="translate(-28.39 -46.35)"/><path class="cls-1" d="M232.18,263.82H228.4l-7.27,18.45h3.42l1.5-3.93h8.4l1.49,3.93h3.51Zm-5,11.58,3.08-8.1,3.08,8.1Z" transform="translate(-28.39 -46.35)"/><path class="cls-1" d="M272.22,263.82v13.05L263,263.82h-3.24v18.45h3.18v-13l9.23,13h3.24V263.82Z" transform="translate(-28.39 -46.35)"/><path class="cls-1" d="M306,279.51a6.47,6.47,0,0,1,0-12.93,6.4,6.4,0,0,1,5.38,2.75l2.73-1.69A9.65,9.65,0,0,0,306,263.5a9.55,9.55,0,1,0,0,19.09,9.65,9.65,0,0,0,8.11-4.14l-2.73-1.69A6.4,6.4,0,0,1,306,279.51Z" transform="translate(-28.39 -46.35)"/><path class="cls-1" d="M334.83,263.82v18.45H338V263.82Z" transform="translate(-28.39 -46.35)"/><path class="cls-1" d="M369.35,263.82h-3.77l-7.27,18.45h3.42l1.49-3.93h8.41l1.49,3.93h3.5Zm-5,11.58,3.07-8.1,3.08,8.1Z" transform="translate(-28.39 -46.35)"/><path class="cls-1" d="M400.12,279.27V263.82h-3.18v18.45h11.6v-3Z" transform="translate(-28.39 -46.35)"/><path class="cls-1" d="M435.36,271.39c-1.77-.35-4-1.05-4-2.7,0-1.39,1.47-2.33,3.5-2.33a7,7,0,0,1,4.82,1.85l1.49-2.41a8.85,8.85,0,0,0-6.25-2.3c-4,0-6.85,2.11-6.85,5.29s3,4.87,6.34,5.64c1.84.41,4.33,1,4.33,2.82,0,1.5-1.71,2.48-3.79,2.48a8.49,8.49,0,0,1-5.83-2.46l-1.67,2.44a11.22,11.22,0,0,0,7.5,2.88c4,0,7.06-2.22,7.06-5.48C442.05,273,437.1,271.76,435.36,271.39Z" transform="translate(-28.39 -46.35)"/><rect class="cls-1" x="93.55" y="130.47" width="15.5" height="71.94" rx="7.46"/><path class="cls-1" d="M217.25,176.82h-.57a7.47,7.47,0,0,0-7.47,7.46v35.89a.73.73,0,0,1-1.3.45l-31.42-40.17a9.44,9.44,0,0,0-7.44-3.63h0a9.45,9.45,0,0,0-9.45,9.45v55a7.46,7.46,0,0,0,7.46,7.46h.57a7.46,7.46,0,0,0,7.46-7.46V205.42a.73.73,0,0,1,1.31-.45l31.42,40.17a9.45,9.45,0,0,0,16.89-5.83v-55A7.46,7.46,0,0,0,217.25,176.82Z" transform="translate(-28.39 -46.35)"/><path class="cls-1" d="M344.85,191.75H372a7.47,7.47,0,0,0,0-14.93H338a9.4,9.4,0,0,0-9.4,9.4v53.14a9.4,9.4,0,0,0,9.4,9.4h34a7.46,7.46,0,0,0,0-14.92H344.85a.8.8,0,0,1-.8-.8V221.1a.8.8,0,0,1,.8-.8h26.46a7.46,7.46,0,1,0,0-14.92H344.85a.8.8,0,0,1-.8-.8v-12A.79.79,0,0,1,344.85,191.75Z" transform="translate(-28.39 -46.35)"/><path class="cls-1" d="M457.26,176.82h-.57a7.46,7.46,0,0,0-7.46,7.46v35.89a.73.73,0,0,1-1.31.45l-31.41-40.17a9.46,9.46,0,0,0-7.45-3.63h0a9.45,9.45,0,0,0-9.45,9.45v55a7.46,7.46,0,0,0,7.47,7.46h.56a7.46,7.46,0,0,0,7.47-7.46v-38l32.72,41.84a9.46,9.46,0,0,0,16.9-5.83v-55A7.47,7.47,0,0,0,457.26,176.82Z" transform="translate(-28.39 -46.35)"/><path class="cls-1" d="M533.92,176.82H488.38a7.47,7.47,0,1,0,0,14.93h15V241.3a7.46,7.46,0,0,0,7.46,7.46h.57a7.46,7.46,0,0,0,7.46-7.46V191.75h15a7.47,7.47,0,0,0,0-14.93Z" transform="translate(-28.39 -46.35)"/><path class="cls-1" d="M109.34,188.56l-.19.39a8.52,8.52,0,0,1-.4.8h0l-1.42,2.46L93.56,216.08c0,.07-.09.12-.13.18L77.88,243.15c-.1.2-.19.41-.3.61a9.9,9.9,0,0,1-17.23.15l-30.58-53a12,12,0,0,1-1.38-3.47L64.63,232,95.88,182.3l-28.79-6.2a9.4,9.4,0,0,1,3.09-.51h30.39a9.29,9.29,0,0,1,6.74,2.83A9.42,9.42,0,0,1,109.34,188.56Z" transform="translate(-28.39 -46.35)"/><path class="cls-1" d="M309.43,199.07a.93.93,0,0,1,.05-.1,4.81,4.81,0,0,0,.63-1l.09-.21a3.93,3.93,0,0,0,.22-.66,4.1,4.1,0,0,0,.11-.61c0-.12,0-.23,0-.35a4,4,0,0,0-.07-.91,1.46,1.46,0,0,0-.05-.2,4.19,4.19,0,0,0-.37-1h0a35.08,35.08,0,0,0-10-11.85c-.63-.48-1.28-1-1.95-1.39a29.92,29.92,0,0,0-3.36-1.9c-.25-.12-.48-.26-.73-.37l-.39-.16a34.73,34.73,0,0,0-14-2.77,36.74,36.74,0,0,0-14.47,2.87,37.39,37.39,0,0,0-6.26,3.41,35.83,35.83,0,0,0-5.41,4.49,36.5,36.5,0,0,0-7.78,11.82,38.14,38.14,0,0,0-2.81,14.61q0,2,.18,3.84a37,37,0,0,0,2.63,10.77,36.54,36.54,0,0,0,7.78,11.83,35.83,35.83,0,0,0,5.41,4.49A36.52,36.52,0,0,0,279.62,250a34.57,34.57,0,0,0,14-2.78l.39-.15.73-.37a29.92,29.92,0,0,0,3.36-1.9c.69-.45,1.34-.93,2-1.42a34.91,34.91,0,0,0,9.95-11.83h0a4,4,0,0,0,.37-1,1.46,1.46,0,0,0,.05-.2,4,4,0,0,0,.07-.91c0-.12,0-.23,0-.35a4.1,4.1,0,0,0-.11-.61,3.65,3.65,0,0,0-.22-.66l-.09-.21a4.55,4.55,0,0,0-.63-1l-.05-.1c-2.64-3.6-8.81-6.47-13.9,0h0a3.89,3.89,0,0,0-.38.43h0a19.48,19.48,0,0,1-6.35,5.92,17.91,17.91,0,0,1-9.21,2.18,21.67,21.67,0,0,1-8.54-1.64,19.69,19.69,0,0,1-9.14-7.75,22.63,22.63,0,0,1-1.92-3.81,23.91,23.91,0,0,1-1.53-6.66c-.07-.79-.1-1.6-.1-2.42s0-1.62.1-2.41a24.06,24.06,0,0,1,1.53-6.67,23.42,23.42,0,0,1,1.92-3.81,20.42,20.42,0,0,1,2.51-3.22,19.85,19.85,0,0,1,6.63-4.53,21.85,21.85,0,0,1,8.54-1.63,18,18,0,0,1,9.21,2.17,19.4,19.4,0,0,1,6.35,5.93h0a3.79,3.79,0,0,0,.38.42l0,0C300.62,205.53,306.79,202.67,309.43,199.07Z" transform="translate(-28.39 -46.35)"/><path class="cls-1" d="M511.16,306.5c40.87-45.26,59.1-94.64,45.38-138.34C527.93,77,371.1,45,206.24,96.73A540.56,540.56,0,0,0,99,143.32c40.49-28.75,90.73-53.75,147.27-71.49,164.86-51.73,320.92-22.2,348.59,66C611.63,191.22,577.41,253.9,511.16,306.5Z" transform="translate(-28.39 -46.35)"/></svg>